<?xml version="1.0" encoding="utf-8" standalone="no"?>
<!DOCTYPE svg PUBLIC "-//W3C//DTD SVG 1.1//EN"
  "http://www.w3.org/Graphics/SVG/1.1/DTD/svg11.dtd">
<svg xmlns:xlink="http://www.w3.org/1999/xlink" width="432pt" height="329.76pt" viewBox="0 0 432 329.76" xmlns="http://www.w3.org/2000/svg" version="1.1">
 <metadata>
  <rdf:RDF xmlns:dc="http://purl.org/dc/elements/1.1/" xmlns:cc="http://creativecommons.org/ns#" xmlns:rdf="http://www.w3.org/1999/02/22-rdf-syntax-ns#">
   <cc:Work>
    <dc:type rdf:resource="http://purl.org/dc/dcmitype/StillImage"/>
    <dc:date>2025-10-16T20:56:11.815251</dc:date>
    <dc:format>image/svg+xml</dc:format>
    <dc:creator>
     <cc:Agent>
      <dc:title>Matplotlib v3.7.3, https://matplotlib.org/</dc:title>
     </cc:Agent>
    </dc:creator>
   </cc:Work>
  </rdf:RDF>
 </metadata>
 <defs>
  <style type="text/css">*{stroke-linejoin: round; stroke-linecap: butt}</style>
 </defs>
 <g id="figure_1">
  <g id="patch_1">
   <path d="M 0 329.76 
L 432 329.76 
L 432 0 
L 0 0 
z
" style="fill: #ffffff"/>
  </g>
  <g id="axes_1">
   <g id="patch_2">
    <path d="M 54.27 270.712677 
L 419.04 270.712677 
L 419.04 49.332096 
L 54.27 49.332096 
z
" style="fill: #eaeaf2"/>
   </g>
   <g id="matplotlib.axis_1">
    <g id="xtick_1">
     <g id="text_1">
      <!-- A:LEU:164 -->
      <g style="fill: #262626" transform="translate(24.550561 319.471467) rotate(-45) scale(0.1 -0.1)">
       <defs>
        <path id="ArialMT-41" d="M -9 0 
L 1750 4581 
L 2403 4581 
L 4278 0 
L 3588 0 
L 3053 1388 
L 1138 1388 
L 634 0 
L -9 0 
z
M 1313 1881 
L 2866 1881 
L 2388 3150 
Q 2169 3728 2063 4100 
Q 1975 3659 1816 3225 
L 1313 1881 
z
" transform="scale(0.015625)"/>
        <path id="ArialMT-3a" d="M 578 2678 
L 578 3319 
L 1219 3319 
L 1219 2678 
L 578 2678 
z
M 578 0 
L 578 641 
L 1219 641 
L 1219 0 
L 578 0 
z
" transform="scale(0.015625)"/>
        <path id="ArialMT-4c" d="M 469 0 
L 469 4581 
L 1075 4581 
L 1075 541 
L 3331 541 
L 3331 0 
L 469 0 
z
" transform="scale(0.015625)"/>
        <path id="ArialMT-45" d="M 506 0 
L 506 4581 
L 3819 4581 
L 3819 4041 
L 1113 4041 
L 1113 2638 
L 3647 2638 
L 3647 2100 
L 1113 2100 
L 1113 541 
L 3925 541 
L 3925 0 
L 506 0 
z
" transform="scale(0.015625)"/>
        <path id="ArialMT-55" d="M 3500 4581 
L 4106 4581 
L 4106 1934 
Q 4106 1244 3950 837 
Q 3794 431 3386 176 
Q 2978 -78 2316 -78 
Q 1672 -78 1262 144 
Q 853 366 678 786 
Q 503 1206 503 1934 
L 503 4581 
L 1109 4581 
L 1109 1938 
Q 1109 1341 1220 1058 
Q 1331 775 1601 622 
Q 1872 469 2263 469 
Q 2931 469 3215 772 
Q 3500 1075 3500 1938 
L 3500 4581 
z
" transform="scale(0.015625)"/>
        <path id="ArialMT-31" d="M 2384 0 
L 1822 0 
L 1822 3584 
Q 1619 3391 1289 3197 
Q 959 3003 697 2906 
L 697 3450 
Q 1169 3672 1522 3987 
Q 1875 4303 2022 4600 
L 2384 4600 
L 2384 0 
z
" transform="scale(0.015625)"/>
        <path id="ArialMT-36" d="M 3184 3459 
L 2625 3416 
Q 2550 3747 2413 3897 
Q 2184 4138 1850 4138 
Q 1581 4138 1378 3988 
Q 1113 3794 959 3422 
Q 806 3050 800 2363 
Q 1003 2672 1297 2822 
Q 1591 2972 1913 2972 
Q 2475 2972 2870 2558 
Q 3266 2144 3266 1488 
Q 3266 1056 3080 686 
Q 2894 316 2569 119 
Q 2244 -78 1831 -78 
Q 1128 -78 684 439 
Q 241 956 241 2144 
Q 241 3472 731 4075 
Q 1159 4600 1884 4600 
Q 2425 4600 2770 4297 
Q 3116 3994 3184 3459 
z
M 888 1484 
Q 888 1194 1011 928 
Q 1134 663 1356 523 
Q 1578 384 1822 384 
Q 2178 384 2434 671 
Q 2691 959 2691 1453 
Q 2691 1928 2437 2201 
Q 2184 2475 1800 2475 
Q 1419 2475 1153 2201 
Q 888 1928 888 1484 
z
" transform="scale(0.015625)"/>
        <path id="ArialMT-34" d="M 2069 0 
L 2069 1097 
L 81 1097 
L 81 1613 
L 2172 4581 
L 2631 4581 
L 2631 1613 
L 3250 1613 
L 3250 1097 
L 2631 1097 
L 2631 0 
L 2069 0 
z
M 2069 1613 
L 2069 3678 
L 634 1613 
L 2069 1613 
z
" transform="scale(0.015625)"/>
       </defs>
       <use xlink:href="#ArialMT-41"/>
       <use xlink:href="#ArialMT-3a" x="66.699219"/>
       <use xlink:href="#ArialMT-4c" x="94.482422"/>
       <use xlink:href="#ArialMT-45" x="150.097656"/>
       <use xlink:href="#ArialMT-55" x="216.796875"/>
       <use xlink:href="#ArialMT-3a" x="289.013672"/>
       <use xlink:href="#ArialMT-31" x="316.796875"/>
       <use xlink:href="#ArialMT-36" x="372.412109"/>
       <use xlink:href="#ArialMT-34" x="428.027344"/>
      </g>
     </g>
    </g>
    <g id="xtick_2">
     <g id="text_2">
      <!-- A:HSD:165 -->
      <g style="fill: #262626" transform="translate(35.142875 320.645927) rotate(-45) scale(0.1 -0.1)">
       <defs>
        <path id="ArialMT-48" d="M 513 0 
L 513 4581 
L 1119 4581 
L 1119 2700 
L 3500 2700 
L 3500 4581 
L 4106 4581 
L 4106 0 
L 3500 0 
L 3500 2159 
L 1119 2159 
L 1119 0 
L 513 0 
z
" transform="scale(0.015625)"/>
        <path id="ArialMT-53" d="M 288 1472 
L 859 1522 
Q 900 1178 1048 958 
Q 1197 738 1509 602 
Q 1822 466 2213 466 
Q 2559 466 2825 569 
Q 3091 672 3220 851 
Q 3350 1031 3350 1244 
Q 3350 1459 3225 1620 
Q 3100 1781 2813 1891 
Q 2628 1963 1997 2114 
Q 1366 2266 1113 2400 
Q 784 2572 623 2826 
Q 463 3081 463 3397 
Q 463 3744 659 4045 
Q 856 4347 1234 4503 
Q 1613 4659 2075 4659 
Q 2584 4659 2973 4495 
Q 3363 4331 3572 4012 
Q 3781 3694 3797 3291 
L 3216 3247 
Q 3169 3681 2898 3903 
Q 2628 4125 2100 4125 
Q 1550 4125 1298 3923 
Q 1047 3722 1047 3438 
Q 1047 3191 1225 3031 
Q 1400 2872 2139 2705 
Q 2878 2538 3153 2413 
Q 3553 2228 3743 1945 
Q 3934 1663 3934 1294 
Q 3934 928 3725 604 
Q 3516 281 3123 101 
Q 2731 -78 2241 -78 
Q 1619 -78 1198 103 
Q 778 284 539 648 
Q 300 1013 288 1472 
z
" transform="scale(0.015625)"/>
        <path id="ArialMT-44" d="M 494 0 
L 494 4581 
L 2072 4581 
Q 2606 4581 2888 4516 
Q 3281 4425 3559 4188 
Q 3922 3881 4101 3404 
Q 4281 2928 4281 2316 
Q 4281 1794 4159 1391 
Q 4038 988 3847 723 
Q 3656 459 3429 307 
Q 3203 156 2883 78 
Q 2563 0 2147 0 
L 494 0 
z
M 1100 541 
L 2078 541 
Q 2531 541 2789 625 
Q 3047 709 3200 863 
Q 3416 1078 3536 1442 
Q 3656 1806 3656 2325 
Q 3656 3044 3420 3430 
Q 3184 3816 2847 3947 
Q 2603 4041 2063 4041 
L 1100 4041 
L 1100 541 
z
" transform="scale(0.015625)"/>
        <path id="ArialMT-35" d="M 266 1200 
L 856 1250 
Q 922 819 1161 601 
Q 1400 384 1738 384 
Q 2144 384 2425 690 
Q 2706 997 2706 1503 
Q 2706 1984 2436 2262 
Q 2166 2541 1728 2541 
Q 1456 2541 1237 2417 
Q 1019 2294 894 2097 
L 366 2166 
L 809 4519 
L 3088 4519 
L 3088 3981 
L 1259 3981 
L 1013 2750 
Q 1425 3038 1878 3038 
Q 2478 3038 2890 2622 
Q 3303 2206 3303 1553 
Q 3303 931 2941 478 
Q 2500 -78 1738 -78 
Q 1113 -78 717 272 
Q 322 622 266 1200 
z
" transform="scale(0.015625)"/>
       </defs>
       <use xlink:href="#ArialMT-41"/>
       <use xlink:href="#ArialMT-3a" x="66.699219"/>
       <use xlink:href="#ArialMT-48" x="94.482422"/>
       <use xlink:href="#ArialMT-53" x="166.699219"/>
       <use xlink:href="#ArialMT-44" x="233.398438"/>
       <use xlink:href="#ArialMT-3a" x="305.615234"/>
       <use xlink:href="#ArialMT-31" x="333.398438"/>
       <use xlink:href="#ArialMT-36" x="389.013672"/>
       <use xlink:href="#ArialMT-35" x="444.628906"/>
      </g>
     </g>
    </g>
    <g id="xtick_3">
     <g id="text_3">
      <!-- A:SER:169 -->
      <g style="fill: #262626" transform="translate(47.299662 320.255913) rotate(-45) scale(0.1 -0.1)">
       <defs>
        <path id="ArialMT-52" d="M 503 0 
L 503 4581 
L 2534 4581 
Q 3147 4581 3465 4457 
Q 3784 4334 3975 4021 
Q 4166 3709 4166 3331 
Q 4166 2844 3850 2509 
Q 3534 2175 2875 2084 
Q 3116 1969 3241 1856 
Q 3506 1613 3744 1247 
L 4541 0 
L 3778 0 
L 3172 953 
Q 2906 1366 2734 1584 
Q 2563 1803 2427 1890 
Q 2291 1978 2150 2013 
Q 2047 2034 1813 2034 
L 1109 2034 
L 1109 0 
L 503 0 
z
M 1109 2559 
L 2413 2559 
Q 2828 2559 3062 2645 
Q 3297 2731 3419 2920 
Q 3541 3109 3541 3331 
Q 3541 3656 3305 3865 
Q 3069 4075 2559 4075 
L 1109 4075 
L 1109 2559 
z
" transform="scale(0.015625)"/>
        <path id="ArialMT-39" d="M 350 1059 
L 891 1109 
Q 959 728 1153 556 
Q 1347 384 1650 384 
Q 1909 384 2104 503 
Q 2300 622 2425 820 
Q 2550 1019 2634 1356 
Q 2719 1694 2719 2044 
Q 2719 2081 2716 2156 
Q 2547 1888 2255 1720 
Q 1963 1553 1622 1553 
Q 1053 1553 659 1965 
Q 266 2378 266 3053 
Q 266 3750 677 4175 
Q 1088 4600 1706 4600 
Q 2153 4600 2523 4359 
Q 2894 4119 3086 3673 
Q 3278 3228 3278 2384 
Q 3278 1506 3087 986 
Q 2897 466 2520 194 
Q 2144 -78 1638 -78 
Q 1100 -78 759 220 
Q 419 519 350 1059 
z
M 2653 3081 
Q 2653 3566 2395 3850 
Q 2138 4134 1775 4134 
Q 1400 4134 1122 3828 
Q 844 3522 844 3034 
Q 844 2597 1108 2323 
Q 1372 2050 1759 2050 
Q 2150 2050 2401 2323 
Q 2653 2597 2653 3081 
z
" transform="scale(0.015625)"/>
       </defs>
       <use xlink:href="#ArialMT-41"/>
       <use xlink:href="#ArialMT-3a" x="66.699219"/>
       <use xlink:href="#ArialMT-53" x="94.482422"/>
       <use xlink:href="#ArialMT-45" x="161.181641"/>
       <use xlink:href="#ArialMT-52" x="227.880859"/>
       <use xlink:href="#ArialMT-3a" x="300.097656"/>
       <use xlink:href="#ArialMT-31" x="327.880859"/>
       <use xlink:href="#ArialMT-36" x="383.496094"/>
       <use xlink:href="#ArialMT-39" x="439.111328"/>
      </g>
     </g>
    </g>
    <g id="xtick_4">
     <g id="text_4">
      <!-- A:PHE:171 -->
      <g style="fill: #262626" transform="translate(59.066437 320.255913) rotate(-45) scale(0.1 -0.1)">
       <defs>
        <path id="ArialMT-50" d="M 494 0 
L 494 4581 
L 2222 4581 
Q 2678 4581 2919 4538 
Q 3256 4481 3484 4323 
Q 3713 4166 3852 3881 
Q 3991 3597 3991 3256 
Q 3991 2672 3619 2267 
Q 3247 1863 2275 1863 
L 1100 1863 
L 1100 0 
L 494 0 
z
M 1100 2403 
L 2284 2403 
Q 2872 2403 3119 2622 
Q 3366 2841 3366 3238 
Q 3366 3525 3220 3729 
Q 3075 3934 2838 4000 
Q 2684 4041 2272 4041 
L 1100 4041 
L 1100 2403 
z
" transform="scale(0.015625)"/>
        <path id="ArialMT-37" d="M 303 3981 
L 303 4522 
L 3269 4522 
L 3269 4084 
Q 2831 3619 2401 2847 
Q 1972 2075 1738 1259 
Q 1569 684 1522 0 
L 944 0 
Q 953 541 1156 1306 
Q 1359 2072 1739 2783 
Q 2119 3494 2547 3981 
L 303 3981 
z
" transform="scale(0.015625)"/>
       </defs>
       <use xlink:href="#ArialMT-41"/>
       <use xlink:href="#ArialMT-3a" x="66.699219"/>
       <use xlink:href="#ArialMT-50" x="94.482422"/>
       <use xlink:href="#ArialMT-48" x="161.181641"/>
       <use xlink:href="#ArialMT-45" x="233.398438"/>
       <use xlink:href="#ArialMT-3a" x="300.097656"/>
       <use xlink:href="#ArialMT-31" x="327.880859"/>
       <use xlink:href="#ArialMT-37" x="383.496094"/>
       <use xlink:href="#ArialMT-31" x="439.111328"/>
      </g>
     </g>
    </g>
    <g id="xtick_5">
     <g id="text_5">
      <!-- A:SER:183 -->
      <g style="fill: #262626" transform="translate(70.833211 320.255913) rotate(-45) scale(0.1 -0.1)">
       <defs>
        <path id="ArialMT-38" d="M 1131 2484 
Q 781 2613 612 2850 
Q 444 3088 444 3419 
Q 444 3919 803 4259 
Q 1163 4600 1759 4600 
Q 2359 4600 2725 4251 
Q 3091 3903 3091 3403 
Q 3091 3084 2923 2848 
Q 2756 2613 2416 2484 
Q 2838 2347 3058 2040 
Q 3278 1734 3278 1309 
Q 3278 722 2862 322 
Q 2447 -78 1769 -78 
Q 1091 -78 675 323 
Q 259 725 259 1325 
Q 259 1772 486 2073 
Q 713 2375 1131 2484 
z
M 1019 3438 
Q 1019 3113 1228 2906 
Q 1438 2700 1772 2700 
Q 2097 2700 2305 2904 
Q 2513 3109 2513 3406 
Q 2513 3716 2298 3927 
Q 2084 4138 1766 4138 
Q 1444 4138 1231 3931 
Q 1019 3725 1019 3438 
z
M 838 1322 
Q 838 1081 952 856 
Q 1066 631 1291 507 
Q 1516 384 1775 384 
Q 2178 384 2440 643 
Q 2703 903 2703 1303 
Q 2703 1709 2433 1975 
Q 2163 2241 1756 2241 
Q 1359 2241 1098 1978 
Q 838 1716 838 1322 
z
" transform="scale(0.015625)"/>
        <path id="ArialMT-33" d="M 269 1209 
L 831 1284 
Q 928 806 1161 595 
Q 1394 384 1728 384 
Q 2125 384 2398 659 
Q 2672 934 2672 1341 
Q 2672 1728 2419 1979 
Q 2166 2231 1775 2231 
Q 1616 2231 1378 2169 
L 1441 2663 
Q 1497 2656 1531 2656 
Q 1891 2656 2178 2843 
Q 2466 3031 2466 3422 
Q 2466 3731 2256 3934 
Q 2047 4138 1716 4138 
Q 1388 4138 1169 3931 
Q 950 3725 888 3313 
L 325 3413 
Q 428 3978 793 4289 
Q 1159 4600 1703 4600 
Q 2078 4600 2393 4439 
Q 2709 4278 2876 4000 
Q 3044 3722 3044 3409 
Q 3044 3113 2884 2869 
Q 2725 2625 2413 2481 
Q 2819 2388 3044 2092 
Q 3269 1797 3269 1353 
Q 3269 753 2831 336 
Q 2394 -81 1725 -81 
Q 1122 -81 723 278 
Q 325 638 269 1209 
z
" transform="scale(0.015625)"/>
       </defs>
       <use xlink:href="#ArialMT-41"/>
       <use xlink:href="#ArialMT-3a" x="66.699219"/>
       <use xlink:href="#ArialMT-53" x="94.482422"/>
       <use xlink:href="#ArialMT-45" x="161.181641"/>
       <use xlink:href="#ArialMT-52" x="227.880859"/>
       <use xlink:href="#ArialMT-3a" x="300.097656"/>
       <use xlink:href="#ArialMT-31" x="327.880859"/>
       <use xlink:href="#ArialMT-38" x="383.496094"/>
       <use xlink:href="#ArialMT-33" x="439.111328"/>
      </g>
     </g>
    </g>
    <g id="xtick_6">
     <g id="text_6">
      <!-- A:TYR:216 -->
      <g style="fill: #262626" transform="translate(82.997733 319.858166) rotate(-45) scale(0.1 -0.1)">
       <defs>
        <path id="ArialMT-54" d="M 1659 0 
L 1659 4041 
L 150 4041 
L 150 4581 
L 3781 4581 
L 3781 4041 
L 2266 4041 
L 2266 0 
L 1659 0 
z
" transform="scale(0.015625)"/>
        <path id="ArialMT-59" d="M 1784 0 
L 1784 1941 
L 19 4581 
L 756 4581 
L 1659 3200 
Q 1909 2813 2125 2425 
Q 2331 2784 2625 3234 
L 3513 4581 
L 4219 4581 
L 2391 1941 
L 2391 0 
L 1784 0 
z
" transform="scale(0.015625)"/>
        <path id="ArialMT-32" d="M 3222 541 
L 3222 0 
L 194 0 
Q 188 203 259 391 
Q 375 700 629 1000 
Q 884 1300 1366 1694 
Q 2113 2306 2375 2664 
Q 2638 3022 2638 3341 
Q 2638 3675 2398 3904 
Q 2159 4134 1775 4134 
Q 1369 4134 1125 3890 
Q 881 3647 878 3216 
L 300 3275 
Q 359 3922 746 4261 
Q 1134 4600 1788 4600 
Q 2447 4600 2831 4234 
Q 3216 3869 3216 3328 
Q 3216 3053 3103 2787 
Q 2991 2522 2730 2228 
Q 2469 1934 1863 1422 
Q 1356 997 1212 845 
Q 1069 694 975 541 
L 3222 541 
z
" transform="scale(0.015625)"/>
       </defs>
       <use xlink:href="#ArialMT-41"/>
       <use xlink:href="#ArialMT-3a" x="66.699219"/>
       <use xlink:href="#ArialMT-54" x="94.482422"/>
       <use xlink:href="#ArialMT-59" x="155.566406"/>
       <use xlink:href="#ArialMT-52" x="222.265625"/>
       <use xlink:href="#ArialMT-3a" x="294.482422"/>
       <use xlink:href="#ArialMT-32" x="322.265625"/>
       <use xlink:href="#ArialMT-31" x="377.880859"/>
       <use xlink:href="#ArialMT-36" x="433.496094"/>
      </g>
     </g>
    </g>
    <g id="xtick_7">
     <g id="text_7">
      <!-- A:PRO:235 -->
      <g style="fill: #262626" transform="translate(93.583418 321.039255) rotate(-45) scale(0.1 -0.1)">
       <defs>
        <path id="ArialMT-4f" d="M 309 2231 
Q 309 3372 921 4017 
Q 1534 4663 2503 4663 
Q 3138 4663 3647 4359 
Q 4156 4056 4423 3514 
Q 4691 2972 4691 2284 
Q 4691 1588 4409 1038 
Q 4128 488 3612 205 
Q 3097 -78 2500 -78 
Q 1853 -78 1343 234 
Q 834 547 571 1087 
Q 309 1628 309 2231 
z
M 934 2222 
Q 934 1394 1379 917 
Q 1825 441 2497 441 
Q 3181 441 3623 922 
Q 4066 1403 4066 2288 
Q 4066 2847 3877 3264 
Q 3688 3681 3323 3911 
Q 2959 4141 2506 4141 
Q 1863 4141 1398 3698 
Q 934 3256 934 2222 
z
" transform="scale(0.015625)"/>
       </defs>
       <use xlink:href="#ArialMT-41"/>
       <use xlink:href="#ArialMT-3a" x="66.699219"/>
       <use xlink:href="#ArialMT-50" x="94.482422"/>
       <use xlink:href="#ArialMT-52" x="161.181641"/>
       <use xlink:href="#ArialMT-4f" x="233.398438"/>
       <use xlink:href="#ArialMT-3a" x="311.181641"/>
       <use xlink:href="#ArialMT-32" x="338.964844"/>
       <use xlink:href="#ArialMT-33" x="394.580078"/>
       <use xlink:href="#ArialMT-35" x="450.195312"/>
      </g>
     </g>
    </g>
    <g id="xtick_8">
     <g id="text_8">
      <!-- A:TRP:238 -->
      <g style="fill: #262626" transform="translate(106.531281 319.858166) rotate(-45) scale(0.1 -0.1)">
       <use xlink:href="#ArialMT-41"/>
       <use xlink:href="#ArialMT-3a" x="66.699219"/>
       <use xlink:href="#ArialMT-54" x="94.482422"/>
       <use xlink:href="#ArialMT-52" x="155.566406"/>
       <use xlink:href="#ArialMT-50" x="227.783203"/>
       <use xlink:href="#ArialMT-3a" x="294.482422"/>
       <use xlink:href="#ArialMT-32" x="322.265625"/>
       <use xlink:href="#ArialMT-33" x="377.880859"/>
       <use xlink:href="#ArialMT-38" x="433.496094"/>
      </g>
     </g>
    </g>
    <g id="xtick_9">
     <g id="text_9">
      <!-- A:GLN:239 -->
      <g style="fill: #262626" transform="translate(117.901412 320.254808) rotate(-45) scale(0.1 -0.1)">
       <defs>
        <path id="ArialMT-47" d="M 2638 1797 
L 2638 2334 
L 4578 2338 
L 4578 638 
Q 4131 281 3656 101 
Q 3181 -78 2681 -78 
Q 2006 -78 1454 211 
Q 903 500 622 1047 
Q 341 1594 341 2269 
Q 341 2938 620 3517 
Q 900 4097 1425 4378 
Q 1950 4659 2634 4659 
Q 3131 4659 3532 4498 
Q 3934 4338 4162 4050 
Q 4391 3763 4509 3300 
L 3963 3150 
Q 3859 3500 3706 3700 
Q 3553 3900 3268 4020 
Q 2984 4141 2638 4141 
Q 2222 4141 1919 4014 
Q 1616 3888 1430 3681 
Q 1244 3475 1141 3228 
Q 966 2803 966 2306 
Q 966 1694 1177 1281 
Q 1388 869 1791 669 
Q 2194 469 2647 469 
Q 3041 469 3416 620 
Q 3791 772 3984 944 
L 3984 1797 
L 2638 1797 
z
" transform="scale(0.015625)"/>
        <path id="ArialMT-4e" d="M 488 0 
L 488 4581 
L 1109 4581 
L 3516 984 
L 3516 4581 
L 4097 4581 
L 4097 0 
L 3475 0 
L 1069 3600 
L 1069 0 
L 488 0 
z
" transform="scale(0.015625)"/>
       </defs>
       <use xlink:href="#ArialMT-41"/>
       <use xlink:href="#ArialMT-3a" x="66.699219"/>
       <use xlink:href="#ArialMT-47" x="94.482422"/>
       <use xlink:href="#ArialMT-4c" x="172.265625"/>
       <use xlink:href="#ArialMT-4e" x="227.880859"/>
       <use xlink:href="#ArialMT-3a" x="300.097656"/>
       <use xlink:href="#ArialMT-32" x="327.880859"/>
       <use xlink:href="#ArialMT-33" x="383.496094"/>
       <use xlink:href="#ArialMT-39" x="439.111328"/>
      </g>
     </g>
    </g>
    <g id="xtick_10">
     <g id="text_10">
      <!-- A:THR:241 -->
      <g style="fill: #262626" transform="translate(129.674816 320.248179) rotate(-45) scale(0.1 -0.1)">
       <use xlink:href="#ArialMT-41"/>
       <use xlink:href="#ArialMT-3a" x="66.699219"/>
       <use xlink:href="#ArialMT-54" x="94.482422"/>
       <use xlink:href="#ArialMT-48" x="155.566406"/>
       <use xlink:href="#ArialMT-52" x="227.783203"/>
       <use xlink:href="#ArialMT-3a" x="300"/>
       <use xlink:href="#ArialMT-32" x="327.783203"/>
       <use xlink:href="#ArialMT-34" x="383.398438"/>
       <use xlink:href="#ArialMT-31" x="439.013672"/>
      </g>
     </g>
    </g>
    <g id="xtick_11">
     <g id="text_11">
      <!-- A:ALA:242 -->
      <g style="fill: #262626" transform="translate(142.608316 319.081453) rotate(-45) scale(0.1 -0.1)">
       <use xlink:href="#ArialMT-41"/>
       <use xlink:href="#ArialMT-3a" x="66.699219"/>
       <use xlink:href="#ArialMT-41" x="94.482422"/>
       <use xlink:href="#ArialMT-4c" x="161.181641"/>
       <use xlink:href="#ArialMT-41" x="216.796875"/>
       <use xlink:href="#ArialMT-3a" x="283.496094"/>
       <use xlink:href="#ArialMT-32" x="311.279297"/>
       <use xlink:href="#ArialMT-34" x="366.894531"/>
       <use xlink:href="#ArialMT-32" x="422.509766"/>
      </g>
     </g>
    </g>
    <g id="xtick_12">
     <g id="text_12">
      <!-- A:VAL:245 -->
      <g style="fill: #262626" transform="translate(154.896582 318.559962) rotate(-45) scale(0.1 -0.1)">
       <defs>
        <path id="ArialMT-56" d="M 1803 0 
L 28 4581 
L 684 4581 
L 1875 1253 
Q 2019 853 2116 503 
Q 2222 878 2363 1253 
L 3600 4581 
L 4219 4581 
L 2425 0 
L 1803 0 
z
" transform="scale(0.015625)"/>
       </defs>
       <use xlink:href="#ArialMT-41"/>
       <use xlink:href="#ArialMT-3a" x="66.699219"/>
       <use xlink:href="#ArialMT-56" x="94.482422"/>
       <use xlink:href="#ArialMT-41" x="153.806641"/>
       <use xlink:href="#ArialMT-4c" x="220.505859"/>
       <use xlink:href="#ArialMT-3a" x="276.121094"/>
       <use xlink:href="#ArialMT-32" x="303.904297"/>
       <use xlink:href="#ArialMT-34" x="359.519531"/>
       <use xlink:href="#ArialMT-35" x="415.134766"/>
      </g>
     </g>
    </g>
    <g id="xtick_13">
     <g id="text_13">
      <!-- A:LEU:246 -->
      <g style="fill: #262626" transform="translate(165.751851 319.471467) rotate(-45) scale(0.1 -0.1)">
       <use xlink:href="#ArialMT-41"/>
       <use xlink:href="#ArialMT-3a" x="66.699219"/>
       <use xlink:href="#ArialMT-4c" x="94.482422"/>
       <use xlink:href="#ArialMT-45" x="150.097656"/>
       <use xlink:href="#ArialMT-55" x="216.796875"/>
       <use xlink:href="#ArialMT-3a" x="289.013672"/>
       <use xlink:href="#ArialMT-32" x="316.796875"/>
       <use xlink:href="#ArialMT-34" x="372.412109"/>
       <use xlink:href="#ArialMT-36" x="428.027344"/>
      </g>
     </g>
    </g>
    <g id="xtick_14">
     <g id="text_14">
      <!-- A:LEU:250 -->
      <g style="fill: #262626" transform="translate(177.518625 319.471467) rotate(-45) scale(0.1 -0.1)">
       <defs>
        <path id="ArialMT-30" d="M 266 2259 
Q 266 3072 433 3567 
Q 600 4063 929 4331 
Q 1259 4600 1759 4600 
Q 2128 4600 2406 4451 
Q 2684 4303 2865 4023 
Q 3047 3744 3150 3342 
Q 3253 2941 3253 2259 
Q 3253 1453 3087 958 
Q 2922 463 2592 192 
Q 2263 -78 1759 -78 
Q 1097 -78 719 397 
Q 266 969 266 2259 
z
M 844 2259 
Q 844 1131 1108 757 
Q 1372 384 1759 384 
Q 2147 384 2411 759 
Q 2675 1134 2675 2259 
Q 2675 3391 2411 3762 
Q 2147 4134 1753 4134 
Q 1366 4134 1134 3806 
Q 844 3388 844 2259 
z
" transform="scale(0.015625)"/>
       </defs>
       <use xlink:href="#ArialMT-41"/>
       <use xlink:href="#ArialMT-3a" x="66.699219"/>
       <use xlink:href="#ArialMT-4c" x="94.482422"/>
       <use xlink:href="#ArialMT-45" x="150.097656"/>
       <use xlink:href="#ArialMT-55" x="216.796875"/>
       <use xlink:href="#ArialMT-3a" x="289.013672"/>
       <use xlink:href="#ArialMT-32" x="316.796875"/>
       <use xlink:href="#ArialMT-35" x="372.412109"/>
       <use xlink:href="#ArialMT-30" x="428.027344"/>
      </g>
     </g>
    </g>
    <g id="xtick_15">
     <g id="text_15">
      <!-- A:PHE:253 -->
      <g style="fill: #262626" transform="translate(188.500953 320.255913) rotate(-45) scale(0.1 -0.1)">
       <use xlink:href="#ArialMT-41"/>
       <use xlink:href="#ArialMT-3a" x="66.699219"/>
       <use xlink:href="#ArialMT-50" x="94.482422"/>
       <use xlink:href="#ArialMT-48" x="161.181641"/>
       <use xlink:href="#ArialMT-45" x="233.398438"/>
       <use xlink:href="#ArialMT-3a" x="300.097656"/>
       <use xlink:href="#ArialMT-32" x="327.880859"/>
       <use xlink:href="#ArialMT-35" x="383.496094"/>
       <use xlink:href="#ArialMT-33" x="439.111328"/>
      </g>
     </g>
    </g>
    <g id="xtick_16">
     <g id="text_16">
      <!-- A:PHE:457 -->
      <g style="fill: #262626" transform="translate(200.267727 320.255913) rotate(-45) scale(0.1 -0.1)">
       <use xlink:href="#ArialMT-41"/>
       <use xlink:href="#ArialMT-3a" x="66.699219"/>
       <use xlink:href="#ArialMT-50" x="94.482422"/>
       <use xlink:href="#ArialMT-48" x="161.181641"/>
       <use xlink:href="#ArialMT-45" x="233.398438"/>
       <use xlink:href="#ArialMT-3a" x="300.097656"/>
       <use xlink:href="#ArialMT-34" x="327.880859"/>
       <use xlink:href="#ArialMT-35" x="383.496094"/>
       <use xlink:href="#ArialMT-37" x="439.111328"/>
      </g>
     </g>
    </g>
    <g id="xtick_17">
     <g id="text_17">
      <!-- B:TYR:161 -->
      <g style="fill: #262626" transform="translate(212.432249 319.858166) rotate(-45) scale(0.1 -0.1)">
       <defs>
        <path id="ArialMT-42" d="M 469 0 
L 469 4581 
L 2188 4581 
Q 2713 4581 3030 4442 
Q 3347 4303 3526 4014 
Q 3706 3725 3706 3409 
Q 3706 3116 3547 2856 
Q 3388 2597 3066 2438 
Q 3481 2316 3704 2022 
Q 3928 1728 3928 1328 
Q 3928 1006 3792 729 
Q 3656 453 3456 303 
Q 3256 153 2954 76 
Q 2653 0 2216 0 
L 469 0 
z
M 1075 2656 
L 2066 2656 
Q 2469 2656 2644 2709 
Q 2875 2778 2992 2937 
Q 3109 3097 3109 3338 
Q 3109 3566 3000 3739 
Q 2891 3913 2687 3977 
Q 2484 4041 1991 4041 
L 1075 4041 
L 1075 2656 
z
M 1075 541 
L 2216 541 
Q 2509 541 2628 563 
Q 2838 600 2978 687 
Q 3119 775 3209 942 
Q 3300 1109 3300 1328 
Q 3300 1584 3169 1773 
Q 3038 1963 2805 2039 
Q 2572 2116 2134 2116 
L 1075 2116 
L 1075 541 
z
" transform="scale(0.015625)"/>
       </defs>
       <use xlink:href="#ArialMT-42"/>
       <use xlink:href="#ArialMT-3a" x="66.699219"/>
       <use xlink:href="#ArialMT-54" x="94.482422"/>
       <use xlink:href="#ArialMT-59" x="155.566406"/>
       <use xlink:href="#ArialMT-52" x="222.265625"/>
       <use xlink:href="#ArialMT-3a" x="294.482422"/>
       <use xlink:href="#ArialMT-31" x="322.265625"/>
       <use xlink:href="#ArialMT-36" x="377.880859"/>
       <use xlink:href="#ArialMT-31" x="433.496094"/>
      </g>
     </g>
    </g>
    <g id="xtick_18">
     <g id="text_18">
      <!-- B:PHE:164 -->
      <g style="fill: #262626" transform="translate(223.801275 320.255913) rotate(-45) scale(0.1 -0.1)">
       <use xlink:href="#ArialMT-42"/>
       <use xlink:href="#ArialMT-3a" x="66.699219"/>
       <use xlink:href="#ArialMT-50" x="94.482422"/>
       <use xlink:href="#ArialMT-48" x="161.181641"/>
       <use xlink:href="#ArialMT-45" x="233.398438"/>
       <use xlink:href="#ArialMT-3a" x="300.097656"/>
       <use xlink:href="#ArialMT-31" x="327.880859"/>
       <use xlink:href="#ArialMT-36" x="383.496094"/>
       <use xlink:href="#ArialMT-34" x="439.111328"/>
      </g>
     </g>
    </g>
    <g id="xtick_19">
     <g id="text_19">
      <!-- B:SER:165 -->
      <g style="fill: #262626" transform="translate(235.56805 320.255913) rotate(-45) scale(0.1 -0.1)">
       <use xlink:href="#ArialMT-42"/>
       <use xlink:href="#ArialMT-3a" x="66.699219"/>
       <use xlink:href="#ArialMT-53" x="94.482422"/>
       <use xlink:href="#ArialMT-45" x="161.181641"/>
       <use xlink:href="#ArialMT-52" x="227.880859"/>
       <use xlink:href="#ArialMT-3a" x="300.097656"/>
       <use xlink:href="#ArialMT-31" x="327.880859"/>
       <use xlink:href="#ArialMT-36" x="383.496094"/>
       <use xlink:href="#ArialMT-35" x="439.111328"/>
      </g>
     </g>
    </g>
    <g id="xtick_20">
     <g id="text_20">
      <!-- B:PHE:167 -->
      <g style="fill: #262626" transform="translate(247.334824 320.255913) rotate(-45) scale(0.1 -0.1)">
       <use xlink:href="#ArialMT-42"/>
       <use xlink:href="#ArialMT-3a" x="66.699219"/>
       <use xlink:href="#ArialMT-50" x="94.482422"/>
       <use xlink:href="#ArialMT-48" x="161.181641"/>
       <use xlink:href="#ArialMT-45" x="233.398438"/>
       <use xlink:href="#ArialMT-3a" x="300.097656"/>
       <use xlink:href="#ArialMT-31" x="327.880859"/>
       <use xlink:href="#ArialMT-36" x="383.496094"/>
       <use xlink:href="#ArialMT-37" x="439.111328"/>
      </g>
     </g>
    </g>
    <g id="xtick_21">
     <g id="text_21">
      <!-- B:THR:168 -->
      <g style="fill: #262626" transform="translate(259.109332 320.248179) rotate(-45) scale(0.1 -0.1)">
       <use xlink:href="#ArialMT-42"/>
       <use xlink:href="#ArialMT-3a" x="66.699219"/>
       <use xlink:href="#ArialMT-54" x="94.482422"/>
       <use xlink:href="#ArialMT-48" x="155.566406"/>
       <use xlink:href="#ArialMT-52" x="227.783203"/>
       <use xlink:href="#ArialMT-3a" x="300"/>
       <use xlink:href="#ArialMT-31" x="327.783203"/>
       <use xlink:href="#ArialMT-36" x="383.398438"/>
       <use xlink:href="#ArialMT-38" x="439.013672"/>
      </g>
     </g>
    </g>
    <g id="xtick_22">
     <g id="text_22">
      <!-- B:THR:179 -->
      <g style="fill: #262626" transform="translate(270.876106 320.248179) rotate(-45) scale(0.1 -0.1)">
       <use xlink:href="#ArialMT-42"/>
       <use xlink:href="#ArialMT-3a" x="66.699219"/>
       <use xlink:href="#ArialMT-54" x="94.482422"/>
       <use xlink:href="#ArialMT-48" x="155.566406"/>
       <use xlink:href="#ArialMT-52" x="227.783203"/>
       <use xlink:href="#ArialMT-3a" x="300"/>
       <use xlink:href="#ArialMT-31" x="327.783203"/>
       <use xlink:href="#ArialMT-37" x="383.398438"/>
       <use xlink:href="#ArialMT-39" x="439.013672"/>
      </g>
     </g>
    </g>
    <g id="xtick_23">
     <g id="text_23">
      <!-- B:TRP:235 -->
      <g style="fill: #262626" transform="translate(283.032894 319.858166) rotate(-45) scale(0.1 -0.1)">
       <use xlink:href="#ArialMT-42"/>
       <use xlink:href="#ArialMT-3a" x="66.699219"/>
       <use xlink:href="#ArialMT-54" x="94.482422"/>
       <use xlink:href="#ArialMT-52" x="155.566406"/>
       <use xlink:href="#ArialMT-50" x="227.783203"/>
       <use xlink:href="#ArialMT-3a" x="294.482422"/>
       <use xlink:href="#ArialMT-32" x="322.265625"/>
       <use xlink:href="#ArialMT-33" x="377.880859"/>
       <use xlink:href="#ArialMT-35" x="433.496094"/>
      </g>
     </g>
    </g>
    <g id="xtick_24">
     <g id="text_24">
      <!-- B:GLN:236 -->
      <g style="fill: #262626" transform="translate(294.403025 320.254808) rotate(-45) scale(0.1 -0.1)">
       <use xlink:href="#ArialMT-42"/>
       <use xlink:href="#ArialMT-3a" x="66.699219"/>
       <use xlink:href="#ArialMT-47" x="94.482422"/>
       <use xlink:href="#ArialMT-4c" x="172.265625"/>
       <use xlink:href="#ArialMT-4e" x="227.880859"/>
       <use xlink:href="#ArialMT-3a" x="300.097656"/>
       <use xlink:href="#ArialMT-32" x="327.880859"/>
       <use xlink:href="#ArialMT-33" x="383.496094"/>
       <use xlink:href="#ArialMT-36" x="439.111328"/>
      </g>
     </g>
    </g>
    <g id="xtick_25">
     <g id="text_25">
      <!-- B:LEU:239 -->
      <g style="fill: #262626" transform="translate(306.953141 319.471467) rotate(-45) scale(0.1 -0.1)">
       <use xlink:href="#ArialMT-42"/>
       <use xlink:href="#ArialMT-3a" x="66.699219"/>
       <use xlink:href="#ArialMT-4c" x="94.482422"/>
       <use xlink:href="#ArialMT-45" x="150.097656"/>
       <use xlink:href="#ArialMT-55" x="216.796875"/>
       <use xlink:href="#ArialMT-3a" x="289.013672"/>
       <use xlink:href="#ArialMT-32" x="316.796875"/>
       <use xlink:href="#ArialMT-33" x="372.412109"/>
       <use xlink:href="#ArialMT-39" x="428.027344"/>
      </g>
     </g>
    </g>
    <g id="xtick_26">
     <g id="text_26">
      <!-- B:CYS:240 -->
      <g style="fill: #262626" transform="translate(317.935469 320.255913) rotate(-45) scale(0.1 -0.1)">
       <defs>
        <path id="ArialMT-43" d="M 3763 1606 
L 4369 1453 
Q 4178 706 3683 314 
Q 3188 -78 2472 -78 
Q 1731 -78 1267 223 
Q 803 525 561 1097 
Q 319 1669 319 2325 
Q 319 3041 592 3573 
Q 866 4106 1370 4382 
Q 1875 4659 2481 4659 
Q 3169 4659 3637 4309 
Q 4106 3959 4291 3325 
L 3694 3184 
Q 3534 3684 3231 3912 
Q 2928 4141 2469 4141 
Q 1941 4141 1586 3887 
Q 1231 3634 1087 3207 
Q 944 2781 944 2328 
Q 944 1744 1114 1308 
Q 1284 872 1643 656 
Q 2003 441 2422 441 
Q 2931 441 3284 734 
Q 3638 1028 3763 1606 
z
" transform="scale(0.015625)"/>
       </defs>
       <use xlink:href="#ArialMT-42"/>
       <use xlink:href="#ArialMT-3a" x="66.699219"/>
       <use xlink:href="#ArialMT-43" x="94.482422"/>
       <use xlink:href="#ArialMT-59" x="166.699219"/>
       <use xlink:href="#ArialMT-53" x="233.398438"/>
       <use xlink:href="#ArialMT-3a" x="300.097656"/>
       <use xlink:href="#ArialMT-32" x="327.880859"/>
       <use xlink:href="#ArialMT-34" x="383.496094"/>
       <use xlink:href="#ArialMT-30" x="439.111328"/>
      </g>
     </g>
    </g>
    <g id="xtick_27">
     <g id="text_27">
      <!-- B:MET:242 -->
      <g style="fill: #262626" transform="translate(330.103305 319.854851) rotate(-45) scale(0.1 -0.1)">
       <defs>
        <path id="ArialMT-4d" d="M 475 0 
L 475 4581 
L 1388 4581 
L 2472 1338 
Q 2622 884 2691 659 
Q 2769 909 2934 1394 
L 4031 4581 
L 4847 4581 
L 4847 0 
L 4263 0 
L 4263 3834 
L 2931 0 
L 2384 0 
L 1059 3900 
L 1059 0 
L 475 0 
z
" transform="scale(0.015625)"/>
       </defs>
       <use xlink:href="#ArialMT-42"/>
       <use xlink:href="#ArialMT-3a" x="66.699219"/>
       <use xlink:href="#ArialMT-4d" x="94.482422"/>
       <use xlink:href="#ArialMT-45" x="177.783203"/>
       <use xlink:href="#ArialMT-54" x="244.482422"/>
       <use xlink:href="#ArialMT-3a" x="294.441406"/>
       <use xlink:href="#ArialMT-32" x="322.224609"/>
       <use xlink:href="#ArialMT-34" x="377.839844"/>
       <use xlink:href="#ArialMT-32" x="433.455078"/>
      </g>
     </g>
    </g>
    <g id="xtick_28">
     <g id="text_28">
      <!-- B:VAL:243 -->
      <g style="fill: #262626" transform="translate(343.164969 318.559962) rotate(-45) scale(0.1 -0.1)">
       <use xlink:href="#ArialMT-42"/>
       <use xlink:href="#ArialMT-3a" x="66.699219"/>
       <use xlink:href="#ArialMT-56" x="94.482422"/>
       <use xlink:href="#ArialMT-41" x="153.806641"/>
       <use xlink:href="#ArialMT-4c" x="220.505859"/>
       <use xlink:href="#ArialMT-3a" x="276.121094"/>
       <use xlink:href="#ArialMT-32" x="303.904297"/>
       <use xlink:href="#ArialMT-34" x="359.519531"/>
       <use xlink:href="#ArialMT-33" x="415.134766"/>
      </g>
     </g>
    </g>
    <g id="xtick_29">
     <g id="text_29">
      <!-- B:ILE:246 -->
      <g style="fill: #262626" transform="translate(357.162444 316.329261) rotate(-45) scale(0.1 -0.1)">
       <defs>
        <path id="ArialMT-49" d="M 597 0 
L 597 4581 
L 1203 4581 
L 1203 0 
L 597 0 
z
" transform="scale(0.015625)"/>
       </defs>
       <use xlink:href="#ArialMT-42"/>
       <use xlink:href="#ArialMT-3a" x="66.699219"/>
       <use xlink:href="#ArialMT-49" x="94.482422"/>
       <use xlink:href="#ArialMT-4c" x="122.265625"/>
       <use xlink:href="#ArialMT-45" x="177.880859"/>
       <use xlink:href="#ArialMT-3a" x="244.580078"/>
       <use xlink:href="#ArialMT-32" x="272.363281"/>
       <use xlink:href="#ArialMT-34" x="327.978516"/>
       <use xlink:href="#ArialMT-36" x="383.59375"/>
      </g>
     </g>
    </g>
    <g id="xtick_30">
     <g id="text_30">
      <!-- B:VAL:247 -->
      <g style="fill: #262626" transform="translate(366.698517 318.559962) rotate(-45) scale(0.1 -0.1)">
       <use xlink:href="#ArialMT-42"/>
       <use xlink:href="#ArialMT-3a" x="66.699219"/>
       <use xlink:href="#ArialMT-56" x="94.482422"/>
       <use xlink:href="#ArialMT-41" x="153.806641"/>
       <use xlink:href="#ArialMT-4c" x="220.505859"/>
       <use xlink:href="#ArialMT-3a" x="276.121094"/>
       <use xlink:href="#ArialMT-32" x="303.904297"/>
       <use xlink:href="#ArialMT-34" x="359.519531"/>
       <use xlink:href="#ArialMT-37" x="415.134766"/>
      </g>
     </g>
    </g>
    <g id="xtick_31">
     <g id="text_31">
      <!-- B:PHE:250 -->
      <g style="fill: #262626" transform="translate(376.76934 320.255913) rotate(-45) scale(0.1 -0.1)">
       <use xlink:href="#ArialMT-42"/>
       <use xlink:href="#ArialMT-3a" x="66.699219"/>
       <use xlink:href="#ArialMT-50" x="94.482422"/>
       <use xlink:href="#ArialMT-48" x="161.181641"/>
       <use xlink:href="#ArialMT-45" x="233.398438"/>
       <use xlink:href="#ArialMT-3a" x="300.097656"/>
       <use xlink:href="#ArialMT-32" x="327.880859"/>
       <use xlink:href="#ArialMT-35" x="383.496094"/>
       <use xlink:href="#ArialMT-30" x="439.111328"/>
      </g>
     </g>
    </g>
   </g>
   <g id="matplotlib.axis_2">
    <g id="ytick_1">
     <g id="line2d_1">
      <path d="M 54.27 69.938857 
L 419.04 69.938857 
" clip-path="url(#p1b2d722e0f)" style="fill: none; stroke: #ffffff; stroke-linecap: round"/>
     </g>
     <g id="text_32">
      <!-- −20 -->
      <g style="fill: #262626" transform="translate(27.8075 73.517764) scale(0.1 -0.1)">
       <defs>
        <path id="ArialMT-2212" d="M 3381 1997 
L 356 1997 
L 356 2522 
L 3381 2522 
L 3381 1997 
z
" transform="scale(0.015625)"/>
       </defs>
       <use xlink:href="#ArialMT-2212"/>
       <use xlink:href="#ArialMT-32" x="58.398438"/>
       <use xlink:href="#ArialMT-30" x="114.013672"/>
      </g>
     </g>
    </g>
    <g id="ytick_2">
     <g id="line2d_2">
      <path d="M 54.27 101.341654 
L 419.04 101.341654 
" clip-path="url(#p1b2d722e0f)" style="fill: none; stroke: #ffffff; stroke-linecap: round"/>
     </g>
     <g id="text_33">
      <!-- −15 -->
      <g style="fill: #262626" transform="translate(27.8075 104.920561) scale(0.1 -0.1)">
       <use xlink:href="#ArialMT-2212"/>
       <use xlink:href="#ArialMT-31" x="58.398438"/>
       <use xlink:href="#ArialMT-35" x="114.013672"/>
      </g>
     </g>
    </g>
    <g id="ytick_3">
     <g id="line2d_3">
      <path d="M 54.27 132.744451 
L 419.04 132.744451 
" clip-path="url(#p1b2d722e0f)" style="fill: none; stroke: #ffffff; stroke-linecap: round"/>
     </g>
     <g id="text_34">
      <!-- −10 -->
      <g style="fill: #262626" transform="translate(27.8075 136.323358) scale(0.1 -0.1)">
       <use xlink:href="#ArialMT-2212"/>
       <use xlink:href="#ArialMT-31" x="58.398438"/>
       <use xlink:href="#ArialMT-30" x="114.013672"/>
      </g>
     </g>
    </g>
    <g id="ytick_4">
     <g id="line2d_4">
      <path d="M 54.27 164.147248 
L 419.04 164.147248 
" clip-path="url(#p1b2d722e0f)" style="fill: none; stroke: #ffffff; stroke-linecap: round"/>
     </g>
     <g id="text_35">
      <!-- −5 -->
      <g style="fill: #262626" transform="translate(33.368437 167.726155) scale(0.1 -0.1)">
       <use xlink:href="#ArialMT-2212"/>
       <use xlink:href="#ArialMT-35" x="58.398438"/>
      </g>
     </g>
    </g>
    <g id="ytick_5">
     <g id="line2d_5">
      <path d="M 54.27 195.550045 
L 419.04 195.550045 
" clip-path="url(#p1b2d722e0f)" style="fill: none; stroke: #ffffff; stroke-linecap: round"/>
     </g>
     <g id="text_36">
      <!-- 0 -->
      <g style="fill: #262626" transform="translate(39.209063 199.128952) scale(0.1 -0.1)">
       <use xlink:href="#ArialMT-30"/>
      </g>
     </g>
    </g>
    <g id="ytick_6">
     <g id="line2d_6">
      <path d="M 54.27 226.952842 
L 419.04 226.952842 
" clip-path="url(#p1b2d722e0f)" style="fill: none; stroke: #ffffff; stroke-linecap: round"/>
     </g>
     <g id="text_37">
      <!-- 5 -->
      <g style="fill: #262626" transform="translate(39.209063 230.531748) scale(0.1 -0.1)">
       <use xlink:href="#ArialMT-35"/>
      </g>
     </g>
    </g>
    <g id="ytick_7">
     <g id="line2d_7">
      <path d="M 54.27 258.355639 
L 419.04 258.355639 
" clip-path="url(#p1b2d722e0f)" style="fill: none; stroke: #ffffff; stroke-linecap: round"/>
     </g>
     <g id="text_38">
      <!-- 10 -->
      <g style="fill: #262626" transform="translate(33.648125 261.934545) scale(0.1 -0.1)">
       <use xlink:href="#ArialMT-31"/>
       <use xlink:href="#ArialMT-30" x="55.615234"/>
      </g>
     </g>
    </g>
    <g id="text_39">
     <!-- Energy (kcal/mol) -->
     <g style="fill: #262626" transform="translate(21.281875 206.698637) rotate(-90) scale(0.12 -0.12)">
      <defs>
       <path id="ArialMT-6e" d="M 422 0 
L 422 3319 
L 928 3319 
L 928 2847 
Q 1294 3394 1984 3394 
Q 2284 3394 2536 3286 
Q 2788 3178 2913 3003 
Q 3038 2828 3088 2588 
Q 3119 2431 3119 2041 
L 3119 0 
L 2556 0 
L 2556 2019 
Q 2556 2363 2490 2533 
Q 2425 2703 2258 2804 
Q 2091 2906 1866 2906 
Q 1506 2906 1245 2678 
Q 984 2450 984 1813 
L 984 0 
L 422 0 
z
" transform="scale(0.015625)"/>
       <path id="ArialMT-65" d="M 2694 1069 
L 3275 997 
Q 3138 488 2766 206 
Q 2394 -75 1816 -75 
Q 1088 -75 661 373 
Q 234 822 234 1631 
Q 234 2469 665 2931 
Q 1097 3394 1784 3394 
Q 2450 3394 2872 2941 
Q 3294 2488 3294 1666 
Q 3294 1616 3291 1516 
L 816 1516 
Q 847 969 1125 678 
Q 1403 388 1819 388 
Q 2128 388 2347 550 
Q 2566 713 2694 1069 
z
M 847 1978 
L 2700 1978 
Q 2663 2397 2488 2606 
Q 2219 2931 1791 2931 
Q 1403 2931 1139 2672 
Q 875 2413 847 1978 
z
" transform="scale(0.015625)"/>
       <path id="ArialMT-72" d="M 416 0 
L 416 3319 
L 922 3319 
L 922 2816 
Q 1116 3169 1280 3281 
Q 1444 3394 1641 3394 
Q 1925 3394 2219 3213 
L 2025 2691 
Q 1819 2813 1613 2813 
Q 1428 2813 1281 2702 
Q 1134 2591 1072 2394 
Q 978 2094 978 1738 
L 978 0 
L 416 0 
z
" transform="scale(0.015625)"/>
       <path id="ArialMT-67" d="M 319 -275 
L 866 -356 
Q 900 -609 1056 -725 
Q 1266 -881 1628 -881 
Q 2019 -881 2231 -725 
Q 2444 -569 2519 -288 
Q 2563 -116 2559 434 
Q 2191 0 1641 0 
Q 956 0 581 494 
Q 206 988 206 1678 
Q 206 2153 378 2554 
Q 550 2956 876 3175 
Q 1203 3394 1644 3394 
Q 2231 3394 2613 2919 
L 2613 3319 
L 3131 3319 
L 3131 450 
Q 3131 -325 2973 -648 
Q 2816 -972 2473 -1159 
Q 2131 -1347 1631 -1347 
Q 1038 -1347 672 -1080 
Q 306 -813 319 -275 
z
M 784 1719 
Q 784 1066 1043 766 
Q 1303 466 1694 466 
Q 2081 466 2343 764 
Q 2606 1063 2606 1700 
Q 2606 2309 2336 2618 
Q 2066 2928 1684 2928 
Q 1309 2928 1046 2623 
Q 784 2319 784 1719 
z
" transform="scale(0.015625)"/>
       <path id="ArialMT-79" d="M 397 -1278 
L 334 -750 
Q 519 -800 656 -800 
Q 844 -800 956 -737 
Q 1069 -675 1141 -563 
Q 1194 -478 1313 -144 
Q 1328 -97 1363 -6 
L 103 3319 
L 709 3319 
L 1400 1397 
Q 1534 1031 1641 628 
Q 1738 1016 1872 1384 
L 2581 3319 
L 3144 3319 
L 1881 -56 
Q 1678 -603 1566 -809 
Q 1416 -1088 1222 -1217 
Q 1028 -1347 759 -1347 
Q 597 -1347 397 -1278 
z
" transform="scale(0.015625)"/>
       <path id="ArialMT-20" transform="scale(0.015625)"/>
       <path id="ArialMT-28" d="M 1497 -1347 
Q 1031 -759 709 28 
Q 388 816 388 1659 
Q 388 2403 628 3084 
Q 909 3875 1497 4659 
L 1900 4659 
Q 1522 4009 1400 3731 
Q 1209 3300 1100 2831 
Q 966 2247 966 1656 
Q 966 153 1900 -1347 
L 1497 -1347 
z
" transform="scale(0.015625)"/>
       <path id="ArialMT-6b" d="M 425 0 
L 425 4581 
L 988 4581 
L 988 1969 
L 2319 3319 
L 3047 3319 
L 1778 2088 
L 3175 0 
L 2481 0 
L 1384 1697 
L 988 1316 
L 988 0 
L 425 0 
z
" transform="scale(0.015625)"/>
       <path id="ArialMT-63" d="M 2588 1216 
L 3141 1144 
Q 3050 572 2676 248 
Q 2303 -75 1759 -75 
Q 1078 -75 664 370 
Q 250 816 250 1647 
Q 250 2184 428 2587 
Q 606 2991 970 3192 
Q 1334 3394 1763 3394 
Q 2303 3394 2647 3120 
Q 2991 2847 3088 2344 
L 2541 2259 
Q 2463 2594 2264 2762 
Q 2066 2931 1784 2931 
Q 1359 2931 1093 2626 
Q 828 2322 828 1663 
Q 828 994 1084 691 
Q 1341 388 1753 388 
Q 2084 388 2306 591 
Q 2528 794 2588 1216 
z
" transform="scale(0.015625)"/>
       <path id="ArialMT-61" d="M 2588 409 
Q 2275 144 1986 34 
Q 1697 -75 1366 -75 
Q 819 -75 525 192 
Q 231 459 231 875 
Q 231 1119 342 1320 
Q 453 1522 633 1644 
Q 813 1766 1038 1828 
Q 1203 1872 1538 1913 
Q 2219 1994 2541 2106 
Q 2544 2222 2544 2253 
Q 2544 2597 2384 2738 
Q 2169 2928 1744 2928 
Q 1347 2928 1158 2789 
Q 969 2650 878 2297 
L 328 2372 
Q 403 2725 575 2942 
Q 747 3159 1072 3276 
Q 1397 3394 1825 3394 
Q 2250 3394 2515 3294 
Q 2781 3194 2906 3042 
Q 3031 2891 3081 2659 
Q 3109 2516 3109 2141 
L 3109 1391 
Q 3109 606 3145 398 
Q 3181 191 3288 0 
L 2700 0 
Q 2613 175 2588 409 
z
M 2541 1666 
Q 2234 1541 1622 1453 
Q 1275 1403 1131 1340 
Q 988 1278 909 1158 
Q 831 1038 831 891 
Q 831 666 1001 516 
Q 1172 366 1500 366 
Q 1825 366 2078 508 
Q 2331 650 2450 897 
Q 2541 1088 2541 1459 
L 2541 1666 
z
" transform="scale(0.015625)"/>
       <path id="ArialMT-6c" d="M 409 0 
L 409 4581 
L 972 4581 
L 972 0 
L 409 0 
z
" transform="scale(0.015625)"/>
       <path id="ArialMT-2f" d="M 0 -78 
L 1328 4659 
L 1778 4659 
L 453 -78 
L 0 -78 
z
" transform="scale(0.015625)"/>
       <path id="ArialMT-6d" d="M 422 0 
L 422 3319 
L 925 3319 
L 925 2853 
Q 1081 3097 1340 3245 
Q 1600 3394 1931 3394 
Q 2300 3394 2536 3241 
Q 2772 3088 2869 2813 
Q 3263 3394 3894 3394 
Q 4388 3394 4653 3120 
Q 4919 2847 4919 2278 
L 4919 0 
L 4359 0 
L 4359 2091 
Q 4359 2428 4304 2576 
Q 4250 2725 4106 2815 
Q 3963 2906 3769 2906 
Q 3419 2906 3187 2673 
Q 2956 2441 2956 1928 
L 2956 0 
L 2394 0 
L 2394 2156 
Q 2394 2531 2256 2718 
Q 2119 2906 1806 2906 
Q 1569 2906 1367 2781 
Q 1166 2656 1075 2415 
Q 984 2175 984 1722 
L 984 0 
L 422 0 
z
" transform="scale(0.015625)"/>
       <path id="ArialMT-6f" d="M 213 1659 
Q 213 2581 725 3025 
Q 1153 3394 1769 3394 
Q 2453 3394 2887 2945 
Q 3322 2497 3322 1706 
Q 3322 1066 3130 698 
Q 2938 331 2570 128 
Q 2203 -75 1769 -75 
Q 1072 -75 642 372 
Q 213 819 213 1659 
z
M 791 1659 
Q 791 1022 1069 705 
Q 1347 388 1769 388 
Q 2188 388 2466 706 
Q 2744 1025 2744 1678 
Q 2744 2294 2464 2611 
Q 2184 2928 1769 2928 
Q 1347 2928 1069 2612 
Q 791 2297 791 1659 
z
" transform="scale(0.015625)"/>
       <path id="ArialMT-29" d="M 791 -1347 
L 388 -1347 
Q 1322 153 1322 1656 
Q 1322 2244 1188 2822 
Q 1081 3291 891 3722 
Q 769 4003 388 4659 
L 791 4659 
Q 1378 3875 1659 3084 
Q 1900 2403 1900 1659 
Q 1900 816 1576 28 
Q 1253 -759 791 -1347 
z
" transform="scale(0.015625)"/>
      </defs>
      <use xlink:href="#ArialMT-45"/>
      <use xlink:href="#ArialMT-6e" x="66.699219"/>
      <use xlink:href="#ArialMT-65" x="122.314453"/>
      <use xlink:href="#ArialMT-72" x="177.929688"/>
      <use xlink:href="#ArialMT-67" x="211.230469"/>
      <use xlink:href="#ArialMT-79" x="266.845703"/>
      <use xlink:href="#ArialMT-20" x="316.845703"/>
      <use xlink:href="#ArialMT-28" x="344.628906"/>
      <use xlink:href="#ArialMT-6b" x="377.929688"/>
      <use xlink:href="#ArialMT-63" x="427.929688"/>
      <use xlink:href="#ArialMT-61" x="477.929688"/>
      <use xlink:href="#ArialMT-6c" x="533.544922"/>
      <use xlink:href="#ArialMT-2f" x="555.761719"/>
      <use xlink:href="#ArialMT-6d" x="583.544922"/>
      <use xlink:href="#ArialMT-6f" x="666.845703"/>
      <use xlink:href="#ArialMT-6c" x="722.460938"/>
      <use xlink:href="#ArialMT-29" x="744.677734"/>
     </g>
    </g>
   </g>
   <g id="patch_3">
    <path d="M 55.446677 195.550045 
L 64.860097 195.550045 
L 64.860097 204.236373 
L 55.446677 204.236373 
z
" clip-path="url(#p1b2d722e0f)" style="fill: #e68193; stroke: #ffffff; stroke-linejoin: miter"/>
   </g>
   <g id="patch_4">
    <path d="M 67.213452 195.550045 
L 76.626871 195.550045 
L 76.626871 173.35235 
L 67.213452 173.35235 
z
" clip-path="url(#p1b2d722e0f)" style="fill: #e5837b; stroke: #ffffff; stroke-linejoin: miter"/>
   </g>
   <g id="patch_5">
    <path d="M 78.980226 195.550045 
L 88.393645 195.550045 
L 88.393645 189.866139 
L 78.980226 189.866139 
z
" clip-path="url(#p1b2d722e0f)" style="fill: #dd7f4a; stroke: #ffffff; stroke-linejoin: miter"/>
   </g>
   <g id="patch_6">
    <path d="M 90.747 195.550045 
L 100.160419 195.550045 
L 100.160419 188.918089 
L 90.747 188.918089 
z
" clip-path="url(#p1b2d722e0f)" style="fill: #c88847; stroke: #ffffff; stroke-linejoin: miter"/>
   </g>
   <g id="patch_7">
    <path d="M 102.513774 195.550045 
L 111.927194 195.550045 
L 111.927194 187.326438 
L 102.513774 187.326438 
z
" clip-path="url(#p1b2d722e0f)" style="fill: #b98c45; stroke: #ffffff; stroke-linejoin: miter"/>
   </g>
   <g id="patch_8">
    <path d="M 114.280548 195.550045 
L 123.693968 195.550045 
L 123.693968 200.046455 
L 114.280548 200.046455 
z
" clip-path="url(#p1b2d722e0f)" style="fill: #ac8f43; stroke: #ffffff; stroke-linejoin: miter"/>
   </g>
   <g id="patch_9">
    <path d="M 126.047323 195.550045 
L 135.460742 195.550045 
L 135.460742 189.783707 
L 126.047323 189.783707 
z
" clip-path="url(#p1b2d722e0f)" style="fill: #a09141; stroke: #ffffff; stroke-linejoin: miter"/>
   </g>
   <g id="patch_10">
    <path d="M 137.814097 195.550045 
L 147.227516 195.550045 
L 147.227516 154.744466 
L 137.814097 154.744466 
z
" clip-path="url(#p1b2d722e0f)" style="fill: #949340; stroke: #ffffff; stroke-linejoin: miter"/>
   </g>
   <g id="patch_11">
    <path d="M 149.580871 195.550045 
L 158.99429 195.550045 
L 158.99429 169.124121 
L 149.580871 169.124121 
z
" clip-path="url(#p1b2d722e0f)" style="fill: #899640; stroke: #ffffff; stroke-linejoin: miter"/>
   </g>
   <g id="patch_12">
    <path d="M 161.347645 195.550045 
L 170.761065 195.550045 
L 170.761065 201.272263 
L 161.347645 201.272263 
z
" clip-path="url(#p1b2d722e0f)" style="fill: #7b9a40; stroke: #ffffff; stroke-linejoin: miter"/>
   </g>
   <g id="patch_13">
    <path d="M 173.114419 195.550045 
L 182.527839 195.550045 
L 182.527839 178.70323 
L 173.114419 178.70323 
z
" clip-path="url(#p1b2d722e0f)" style="fill: #649f41; stroke: #ffffff; stroke-linejoin: miter"/>
   </g>
   <g id="patch_14">
    <path d="M 184.881194 195.550045 
L 194.294613 195.550045 
L 194.294613 165.147741 
L 184.881194 165.147741 
z
" clip-path="url(#p1b2d722e0f)" style="fill: #42a253; stroke: #ffffff; stroke-linejoin: miter"/>
   </g>
   <g id="patch_15">
    <path d="M 196.647968 195.550045 
L 206.061387 195.550045 
L 206.061387 156.212233 
L 196.647968 156.212233 
z
" clip-path="url(#p1b2d722e0f)" style="fill: #43a171; stroke: #ffffff; stroke-linejoin: miter"/>
   </g>
   <g id="patch_16">
    <path d="M 208.414742 195.550045 
L 217.828161 195.550045 
L 217.828161 190.94561 
L 208.414742 190.94561 
z
" clip-path="url(#p1b2d722e0f)" style="fill: #43a080; stroke: #ffffff; stroke-linejoin: miter"/>
   </g>
   <g id="patch_17">
    <path d="M 220.181516 195.550045 
L 229.594935 195.550045 
L 229.594935 177.799457 
L 220.181516 177.799457 
z
" clip-path="url(#p1b2d722e0f)" style="fill: #449f8b; stroke: #ffffff; stroke-linejoin: miter"/>
   </g>
   <g id="patch_18">
    <path d="M 231.94829 195.550045 
L 241.36171 195.550045 
L 241.36171 191.273769 
L 231.94829 191.273769 
z
" clip-path="url(#p1b2d722e0f)" style="fill: #449e93; stroke: #ffffff; stroke-linejoin: miter"/>
   </g>
   <g id="patch_19">
    <path d="M 243.715065 195.550045 
L 253.128484 195.550045 
L 253.128484 176.747935 
L 243.715065 176.747935 
z
" clip-path="url(#p1b2d722e0f)" style="fill: #459d9b; stroke: #ffffff; stroke-linejoin: miter"/>
   </g>
   <g id="patch_20">
    <path d="M 255.481839 195.550045 
L 264.895258 195.550045 
L 264.895258 188.816972 
L 255.481839 188.816972 
z
" clip-path="url(#p1b2d722e0f)" style="fill: #469ea4; stroke: #ffffff; stroke-linejoin: miter"/>
   </g>
   <g id="patch_21">
    <path d="M 267.248613 195.550045 
L 276.662032 195.550045 
L 276.662032 211.313307 
L 267.248613 211.313307 
z
" clip-path="url(#p1b2d722e0f)" style="fill: #489ead; stroke: #ffffff; stroke-linejoin: miter"/>
   </g>
   <g id="patch_22">
    <path d="M 279.015387 195.550045 
L 288.428806 195.550045 
L 288.428806 180.381395 
L 279.015387 180.381395 
z
" clip-path="url(#p1b2d722e0f)" style="fill: #4b9fb8; stroke: #ffffff; stroke-linejoin: miter"/>
   </g>
   <g id="patch_23">
    <path d="M 290.782161 195.550045 
L 300.195581 195.550045 
L 300.195581 222.148842 
L 290.782161 222.148842 
z
" clip-path="url(#p1b2d722e0f)" style="fill: #4e9fc8; stroke: #ffffff; stroke-linejoin: miter"/>
   </g>
   <g id="patch_24">
    <path d="M 302.548935 195.550045 
L 311.962355 195.550045 
L 311.962355 174.264758 
L 302.548935 174.264758 
z
" clip-path="url(#p1b2d722e0f)" style="fill: #59a0de; stroke: #ffffff; stroke-linejoin: miter"/>
   </g>
   <g id="patch_25">
    <path d="M 314.31571 195.550045 
L 323.729129 195.550045 
L 323.729129 155.253034 
L 314.31571 155.253034 
z
" clip-path="url(#p1b2d722e0f)" style="fill: #8aa0e5; stroke: #ffffff; stroke-linejoin: miter"/>
   </g>
   <g id="patch_26">
    <path d="M 326.082484 195.550045 
L 335.495903 195.550045 
L 335.495903 136.035307 
L 326.082484 136.035307 
z
" clip-path="url(#p1b2d722e0f)" style="fill: #a69be8; stroke: #ffffff; stroke-linejoin: miter"/>
   </g>
   <g id="patch_27">
    <path d="M 337.849258 195.550045 
L 347.262677 195.550045 
L 347.262677 159.616453 
L 337.849258 159.616453 
z
" clip-path="url(#p1b2d722e0f)" style="fill: #b992e6; stroke: #ffffff; stroke-linejoin: miter"/>
   </g>
   <g id="patch_28">
    <path d="M 349.616032 195.550045 
L 359.029452 195.550045 
L 359.029452 189.599529 
L 349.616032 189.599529 
z
" clip-path="url(#p1b2d722e0f)" style="fill: #ca86e5; stroke: #ffffff; stroke-linejoin: miter"/>
   </g>
   <g id="patch_29">
    <path d="M 361.382806 195.550045 
L 370.796226 195.550045 
L 370.796226 185.235169 
L 361.382806 185.235169 
z
" clip-path="url(#p1b2d722e0f)" style="fill: #dc75e2; stroke: #ffffff; stroke-linejoin: miter"/>
   </g>
   <g id="patch_30">
    <path d="M 373.149581 195.550045 
L 382.563 195.550045 
L 382.563 191.964945 
L 373.149581 191.964945 
z
" clip-path="url(#p1b2d722e0f)" style="fill: #e273d3; stroke: #ffffff; stroke-linejoin: miter"/>
   </g>
   <g id="patch_31">
    <path d="M 384.916355 195.550045 
L 394.329774 195.550045 
L 394.329774 184.715138 
L 384.916355 184.715138 
z
" clip-path="url(#p1b2d722e0f)" style="fill: #e378c3; stroke: #ffffff; stroke-linejoin: miter"/>
   </g>
   <g id="patch_32">
    <path d="M 396.683129 195.550045 
L 406.096548 195.550045 
L 406.096548 179.881463 
L 396.683129 179.881463 
z
" clip-path="url(#p1b2d722e0f)" style="fill: #e47bb4; stroke: #ffffff; stroke-linejoin: miter"/>
   </g>
   <g id="patch_33">
    <path d="M 408.449903 195.550045 
L 417.863323 195.550045 
L 417.863323 174.665301 
L 408.449903 174.665301 
z
" clip-path="url(#p1b2d722e0f)" style="fill: #e57ea6; stroke: #ffffff; stroke-linejoin: miter"/>
   </g>
   <g id="LineCollection_1">
    <path d="M 60.153387 184.039136 
L 60.153387 224.433609 
" clip-path="url(#p1b2d722e0f)" style="fill: none; stroke: #000000; stroke-width: 0.7"/>
    <path d="M 71.920161 136.031626 
L 71.920161 210.673075 
" clip-path="url(#p1b2d722e0f)" style="fill: none; stroke: #000000; stroke-width: 0.7"/>
    <path d="M 83.686935 163.859447 
L 83.686935 215.872831 
" clip-path="url(#p1b2d722e0f)" style="fill: none; stroke: #000000; stroke-width: 0.7"/>
    <path d="M 95.45371 173.571915 
L 95.45371 204.264262 
" clip-path="url(#p1b2d722e0f)" style="fill: none; stroke: #000000; stroke-width: 0.7"/>
    <path d="M 107.220484 138.185518 
L 107.220484 236.467358 
" clip-path="url(#p1b2d722e0f)" style="fill: none; stroke: #000000; stroke-width: 0.7"/>
    <path d="M 118.987258 180.800885 
L 118.987258 219.292025 
" clip-path="url(#p1b2d722e0f)" style="fill: none; stroke: #000000; stroke-width: 0.7"/>
    <path d="M 130.754032 160.700084 
L 130.754032 218.867329 
" clip-path="url(#p1b2d722e0f)" style="fill: none; stroke: #000000; stroke-width: 0.7"/>
    <path d="M 142.520806 83.476735 
L 142.520806 226.012196 
" clip-path="url(#p1b2d722e0f)" style="fill: none; stroke: #000000; stroke-width: 0.7"/>
    <path d="M 154.287581 114.06606 
L 154.287581 224.182181 
" clip-path="url(#p1b2d722e0f)" style="fill: none; stroke: #000000; stroke-width: 0.7"/>
    <path d="M 166.054355 167.805817 
L 166.054355 234.738709 
" clip-path="url(#p1b2d722e0f)" style="fill: none; stroke: #000000; stroke-width: 0.7"/>
    <path d="M 177.821129 129.022613 
L 177.821129 228.383846 
" clip-path="url(#p1b2d722e0f)" style="fill: none; stroke: #000000; stroke-width: 0.7"/>
    <path d="M 189.587903 138.37839 
L 189.587903 191.917092 
" clip-path="url(#p1b2d722e0f)" style="fill: none; stroke: #000000; stroke-width: 0.7"/>
    <path d="M 201.354677 120.615759 
L 201.354677 191.808706 
" clip-path="url(#p1b2d722e0f)" style="fill: none; stroke: #000000; stroke-width: 0.7"/>
    <path d="M 213.121452 177.963319 
L 213.121452 203.927901 
" clip-path="url(#p1b2d722e0f)" style="fill: none; stroke: #000000; stroke-width: 0.7"/>
    <path d="M 224.888226 158.904556 
L 224.888226 196.694358 
" clip-path="url(#p1b2d722e0f)" style="fill: none; stroke: #000000; stroke-width: 0.7"/>
    <path d="M 236.655 186.386486 
L 236.655 196.161053 
" clip-path="url(#p1b2d722e0f)" style="fill: none; stroke: #000000; stroke-width: 0.7"/>
    <path d="M 248.421774 147.08624 
L 248.421774 206.409629 
" clip-path="url(#p1b2d722e0f)" style="fill: none; stroke: #000000; stroke-width: 0.7"/>
    <path d="M 260.188548 139.687986 
L 260.188548 237.945957 
" clip-path="url(#p1b2d722e0f)" style="fill: none; stroke: #000000; stroke-width: 0.7"/>
    <path d="M 271.955323 168.274497 
L 271.955323 254.352117 
" clip-path="url(#p1b2d722e0f)" style="fill: none; stroke: #000000; stroke-width: 0.7"/>
    <path d="M 283.722097 138.627123 
L 283.722097 222.135668 
" clip-path="url(#p1b2d722e0f)" style="fill: none; stroke: #000000; stroke-width: 0.7"/>
    <path d="M 295.488871 183.647761 
L 295.488871 260.649924 
" clip-path="url(#p1b2d722e0f)" style="fill: none; stroke: #000000; stroke-width: 0.7"/>
    <path d="M 307.255645 130.109978 
L 307.255645 218.419539 
" clip-path="url(#p1b2d722e0f)" style="fill: none; stroke: #000000; stroke-width: 0.7"/>
    <path d="M 319.022419 81.819405 
L 319.022419 228.686663 
" clip-path="url(#p1b2d722e0f)" style="fill: none; stroke: #000000; stroke-width: 0.7"/>
    <path d="M 330.789194 59.39485 
L 330.789194 212.675765 
" clip-path="url(#p1b2d722e0f)" style="fill: none; stroke: #000000; stroke-width: 0.7"/>
    <path d="M 342.555968 120.257365 
L 342.555968 198.975541 
" clip-path="url(#p1b2d722e0f)" style="fill: none; stroke: #000000; stroke-width: 0.7"/>
    <path d="M 354.322742 167.341156 
L 354.322742 211.857902 
" clip-path="url(#p1b2d722e0f)" style="fill: none; stroke: #000000; stroke-width: 0.7"/>
    <path d="M 366.089516 168.905472 
L 366.089516 201.564865 
" clip-path="url(#p1b2d722e0f)" style="fill: none; stroke: #000000; stroke-width: 0.7"/>
    <path d="M 377.85629 156.647025 
L 377.85629 227.282865 
" clip-path="url(#p1b2d722e0f)" style="fill: none; stroke: #000000; stroke-width: 0.7"/>
    <path d="M 389.623065 167.887181 
L 389.623065 201.543096 
" clip-path="url(#p1b2d722e0f)" style="fill: none; stroke: #000000; stroke-width: 0.7"/>
    <path d="M 401.389839 165.228321 
L 401.389839 194.534605 
" clip-path="url(#p1b2d722e0f)" style="fill: none; stroke: #000000; stroke-width: 0.7"/>
    <path d="M 413.156613 148.570199 
L 413.156613 200.760403 
" clip-path="url(#p1b2d722e0f)" style="fill: none; stroke: #000000; stroke-width: 0.7"/>
   </g>
   <g id="line2d_8">
    <path clip-path="url(#p1b2d722e0f)" style="fill: none; stroke: #424242; stroke-width: 2.7; stroke-linecap: round"/>
   </g>
   <g id="line2d_9">
    <path clip-path="url(#p1b2d722e0f)" style="fill: none; stroke: #424242; stroke-width: 2.7; stroke-linecap: round"/>
   </g>
   <g id="line2d_10">
    <path clip-path="url(#p1b2d722e0f)" style="fill: none; stroke: #424242; stroke-width: 2.7; stroke-linecap: round"/>
   </g>
   <g id="line2d_11">
    <path clip-path="url(#p1b2d722e0f)" style="fill: none; stroke: #424242; stroke-width: 2.7; stroke-linecap: round"/>
   </g>
   <g id="line2d_12">
    <path clip-path="url(#p1b2d722e0f)" style="fill: none; stroke: #424242; stroke-width: 2.7; stroke-linecap: round"/>
   </g>
   <g id="line2d_13">
    <path clip-path="url(#p1b2d722e0f)" style="fill: none; stroke: #424242; stroke-width: 2.7; stroke-linecap: round"/>
   </g>
   <g id="line2d_14">
    <path clip-path="url(#p1b2d722e0f)" style="fill: none; stroke: #424242; stroke-width: 2.7; stroke-linecap: round"/>
   </g>
   <g id="line2d_15">
    <path clip-path="url(#p1b2d722e0f)" style="fill: none; stroke: #424242; stroke-width: 2.7; stroke-linecap: round"/>
   </g>
   <g id="line2d_16">
    <path clip-path="url(#p1b2d722e0f)" style="fill: none; stroke: #424242; stroke-width: 2.7; stroke-linecap: round"/>
   </g>
   <g id="line2d_17">
    <path clip-path="url(#p1b2d722e0f)" style="fill: none; stroke: #424242; stroke-width: 2.7; stroke-linecap: round"/>
   </g>
   <g id="line2d_18">
    <path clip-path="url(#p1b2d722e0f)" style="fill: none; stroke: #424242; stroke-width: 2.7; stroke-linecap: round"/>
   </g>
   <g id="line2d_19">
    <path clip-path="url(#p1b2d722e0f)" style="fill: none; stroke: #424242; stroke-width: 2.7; stroke-linecap: round"/>
   </g>
   <g id="line2d_20">
    <path clip-path="url(#p1b2d722e0f)" style="fill: none; stroke: #424242; stroke-width: 2.7; stroke-linecap: round"/>
   </g>
   <g id="line2d_21">
    <path clip-path="url(#p1b2d722e0f)" style="fill: none; stroke: #424242; stroke-width: 2.7; stroke-linecap: round"/>
   </g>
   <g id="line2d_22">
    <path clip-path="url(#p1b2d722e0f)" style="fill: none; stroke: #424242; stroke-width: 2.7; stroke-linecap: round"/>
   </g>
   <g id="line2d_23">
    <path clip-path="url(#p1b2d722e0f)" style="fill: none; stroke: #424242; stroke-width: 2.7; stroke-linecap: round"/>
   </g>
   <g id="line2d_24">
    <path clip-path="url(#p1b2d722e0f)" style="fill: none; stroke: #424242; stroke-width: 2.7; stroke-linecap: round"/>
   </g>
   <g id="line2d_25">
    <path clip-path="url(#p1b2d722e0f)" style="fill: none; stroke: #424242; stroke-width: 2.7; stroke-linecap: round"/>
   </g>
   <g id="line2d_26">
    <path clip-path="url(#p1b2d722e0f)" style="fill: none; stroke: #424242; stroke-width: 2.7; stroke-linecap: round"/>
   </g>
   <g id="line2d_27">
    <path clip-path="url(#p1b2d722e0f)" style="fill: none; stroke: #424242; stroke-width: 2.7; stroke-linecap: round"/>
   </g>
   <g id="line2d_28">
    <path clip-path="url(#p1b2d722e0f)" style="fill: none; stroke: #424242; stroke-width: 2.7; stroke-linecap: round"/>
   </g>
   <g id="line2d_29">
    <path clip-path="url(#p1b2d722e0f)" style="fill: none; stroke: #424242; stroke-width: 2.7; stroke-linecap: round"/>
   </g>
   <g id="line2d_30">
    <path clip-path="url(#p1b2d722e0f)" style="fill: none; stroke: #424242; stroke-width: 2.7; stroke-linecap: round"/>
   </g>
   <g id="line2d_31">
    <path clip-path="url(#p1b2d722e0f)" style="fill: none; stroke: #424242; stroke-width: 2.7; stroke-linecap: round"/>
   </g>
   <g id="line2d_32">
    <path clip-path="url(#p1b2d722e0f)" style="fill: none; stroke: #424242; stroke-width: 2.7; stroke-linecap: round"/>
   </g>
   <g id="line2d_33">
    <path clip-path="url(#p1b2d722e0f)" style="fill: none; stroke: #424242; stroke-width: 2.7; stroke-linecap: round"/>
   </g>
   <g id="line2d_34">
    <path clip-path="url(#p1b2d722e0f)" style="fill: none; stroke: #424242; stroke-width: 2.7; stroke-linecap: round"/>
   </g>
   <g id="line2d_35">
    <path clip-path="url(#p1b2d722e0f)" style="fill: none; stroke: #424242; stroke-width: 2.7; stroke-linecap: round"/>
   </g>
   <g id="line2d_36">
    <path clip-path="url(#p1b2d722e0f)" style="fill: none; stroke: #424242; stroke-width: 2.7; stroke-linecap: round"/>
   </g>
   <g id="line2d_37">
    <path clip-path="url(#p1b2d722e0f)" style="fill: none; stroke: #424242; stroke-width: 2.7; stroke-linecap: round"/>
   </g>
   <g id="line2d_38">
    <path clip-path="url(#p1b2d722e0f)" style="fill: none; stroke: #424242; stroke-width: 2.7; stroke-linecap: round"/>
   </g>
   <g id="patch_34">
    <path d="M 54.27 270.712677 
L 54.27 49.332096 
" style="fill: none; stroke: #ffffff; stroke-width: 1.25; stroke-linejoin: miter; stroke-linecap: square"/>
   </g>
   <g id="patch_35">
    <path d="M 419.04 270.712677 
L 419.04 49.332096 
" style="fill: none; stroke: #ffffff; stroke-width: 1.25; stroke-linejoin: miter; stroke-linecap: square"/>
   </g>
   <g id="patch_36">
    <path d="M 54.27 270.712677 
L 419.04 270.712677 
" style="fill: none; stroke: #ffffff; stroke-width: 1.25; stroke-linejoin: miter; stroke-linecap: square"/>
   </g>
   <g id="patch_37">
    <path d="M 54.27 49.332096 
L 419.04 49.332096 
" style="fill: none; stroke: #ffffff; stroke-width: 1.25; stroke-linejoin: miter; stroke-linecap: square"/>
   </g>
  </g>
  <g id="text_40">
   <!-- Energetic Components [Per-residue] -->
   <g style="fill: #262626" transform="translate(102.78375 16.786763) scale(0.14 -0.14)">
    <defs>
     <path id="ArialMT-74" d="M 1650 503 
L 1731 6 
Q 1494 -44 1306 -44 
Q 1000 -44 831 53 
Q 663 150 594 308 
Q 525 466 525 972 
L 525 2881 
L 113 2881 
L 113 3319 
L 525 3319 
L 525 4141 
L 1084 4478 
L 1084 3319 
L 1650 3319 
L 1650 2881 
L 1084 2881 
L 1084 941 
Q 1084 700 1114 631 
Q 1144 563 1211 522 
Q 1278 481 1403 481 
Q 1497 481 1650 503 
z
" transform="scale(0.015625)"/>
     <path id="ArialMT-69" d="M 425 3934 
L 425 4581 
L 988 4581 
L 988 3934 
L 425 3934 
z
M 425 0 
L 425 3319 
L 988 3319 
L 988 0 
L 425 0 
z
" transform="scale(0.015625)"/>
     <path id="ArialMT-70" d="M 422 -1272 
L 422 3319 
L 934 3319 
L 934 2888 
Q 1116 3141 1344 3267 
Q 1572 3394 1897 3394 
Q 2322 3394 2647 3175 
Q 2972 2956 3137 2557 
Q 3303 2159 3303 1684 
Q 3303 1175 3120 767 
Q 2938 359 2589 142 
Q 2241 -75 1856 -75 
Q 1575 -75 1351 44 
Q 1128 163 984 344 
L 984 -1272 
L 422 -1272 
z
M 931 1641 
Q 931 1000 1190 694 
Q 1450 388 1819 388 
Q 2194 388 2461 705 
Q 2728 1022 2728 1688 
Q 2728 2322 2467 2637 
Q 2206 2953 1844 2953 
Q 1484 2953 1207 2617 
Q 931 2281 931 1641 
z
" transform="scale(0.015625)"/>
     <path id="ArialMT-73" d="M 197 991 
L 753 1078 
Q 800 744 1014 566 
Q 1228 388 1613 388 
Q 2000 388 2187 545 
Q 2375 703 2375 916 
Q 2375 1106 2209 1216 
Q 2094 1291 1634 1406 
Q 1016 1563 777 1677 
Q 538 1791 414 1992 
Q 291 2194 291 2438 
Q 291 2659 392 2848 
Q 494 3038 669 3163 
Q 800 3259 1026 3326 
Q 1253 3394 1513 3394 
Q 1903 3394 2198 3281 
Q 2494 3169 2634 2976 
Q 2775 2784 2828 2463 
L 2278 2388 
Q 2241 2644 2061 2787 
Q 1881 2931 1553 2931 
Q 1166 2931 1000 2803 
Q 834 2675 834 2503 
Q 834 2394 903 2306 
Q 972 2216 1119 2156 
Q 1203 2125 1616 2013 
Q 2213 1853 2448 1751 
Q 2684 1650 2818 1456 
Q 2953 1263 2953 975 
Q 2953 694 2789 445 
Q 2625 197 2315 61 
Q 2006 -75 1616 -75 
Q 969 -75 630 194 
Q 291 463 197 991 
z
" transform="scale(0.015625)"/>
     <path id="ArialMT-5b" d="M 434 -1272 
L 434 4581 
L 1675 4581 
L 1675 4116 
L 997 4116 
L 997 -806 
L 1675 -806 
L 1675 -1272 
L 434 -1272 
z
" transform="scale(0.015625)"/>
     <path id="ArialMT-2d" d="M 203 1375 
L 203 1941 
L 1931 1941 
L 1931 1375 
L 203 1375 
z
" transform="scale(0.015625)"/>
     <path id="ArialMT-64" d="M 2575 0 
L 2575 419 
Q 2259 -75 1647 -75 
Q 1250 -75 917 144 
Q 584 363 401 755 
Q 219 1147 219 1656 
Q 219 2153 384 2558 
Q 550 2963 881 3178 
Q 1213 3394 1622 3394 
Q 1922 3394 2156 3267 
Q 2391 3141 2538 2938 
L 2538 4581 
L 3097 4581 
L 3097 0 
L 2575 0 
z
M 797 1656 
Q 797 1019 1065 703 
Q 1334 388 1700 388 
Q 2069 388 2326 689 
Q 2584 991 2584 1609 
Q 2584 2291 2321 2609 
Q 2059 2928 1675 2928 
Q 1300 2928 1048 2622 
Q 797 2316 797 1656 
z
" transform="scale(0.015625)"/>
     <path id="ArialMT-75" d="M 2597 0 
L 2597 488 
Q 2209 -75 1544 -75 
Q 1250 -75 995 37 
Q 741 150 617 320 
Q 494 491 444 738 
Q 409 903 409 1263 
L 409 3319 
L 972 3319 
L 972 1478 
Q 972 1038 1006 884 
Q 1059 663 1231 536 
Q 1403 409 1656 409 
Q 1909 409 2131 539 
Q 2353 669 2445 892 
Q 2538 1116 2538 1541 
L 2538 3319 
L 3100 3319 
L 3100 0 
L 2597 0 
z
" transform="scale(0.015625)"/>
     <path id="ArialMT-5d" d="M 1363 -1272 
L 122 -1272 
L 122 -806 
L 800 -806 
L 800 4116 
L 122 4116 
L 122 4581 
L 1363 4581 
L 1363 -1272 
z
" transform="scale(0.015625)"/>
    </defs>
    <use xlink:href="#ArialMT-45"/>
    <use xlink:href="#ArialMT-6e" x="66.699219"/>
    <use xlink:href="#ArialMT-65" x="122.314453"/>
    <use xlink:href="#ArialMT-72" x="177.929688"/>
    <use xlink:href="#ArialMT-67" x="211.230469"/>
    <use xlink:href="#ArialMT-65" x="266.845703"/>
    <use xlink:href="#ArialMT-74" x="322.460938"/>
    <use xlink:href="#ArialMT-69" x="350.244141"/>
    <use xlink:href="#ArialMT-63" x="372.460938"/>
    <use xlink:href="#ArialMT-20" x="422.460938"/>
    <use xlink:href="#ArialMT-43" x="450.244141"/>
    <use xlink:href="#ArialMT-6f" x="522.460938"/>
    <use xlink:href="#ArialMT-6d" x="578.076172"/>
    <use xlink:href="#ArialMT-70" x="661.376953"/>
    <use xlink:href="#ArialMT-6f" x="716.992188"/>
    <use xlink:href="#ArialMT-6e" x="772.607422"/>
    <use xlink:href="#ArialMT-65" x="828.222656"/>
    <use xlink:href="#ArialMT-6e" x="883.837891"/>
    <use xlink:href="#ArialMT-74" x="939.453125"/>
    <use xlink:href="#ArialMT-73" x="967.236328"/>
    <use xlink:href="#ArialMT-20" x="1017.236328"/>
    <use xlink:href="#ArialMT-5b" x="1045.019531"/>
    <use xlink:href="#ArialMT-50" x="1072.802734"/>
    <use xlink:href="#ArialMT-65" x="1139.501953"/>
    <use xlink:href="#ArialMT-72" x="1195.117188"/>
    <use xlink:href="#ArialMT-2d" x="1228.417969"/>
    <use xlink:href="#ArialMT-72" x="1261.71875"/>
    <use xlink:href="#ArialMT-65" x="1295.019531"/>
    <use xlink:href="#ArialMT-73" x="1350.634766"/>
    <use xlink:href="#ArialMT-69" x="1400.634766"/>
    <use xlink:href="#ArialMT-64" x="1422.851562"/>
    <use xlink:href="#ArialMT-75" x="1478.466797"/>
    <use xlink:href="#ArialMT-65" x="1534.082031"/>
    <use xlink:href="#ArialMT-5d" x="1589.697266"/>
   </g>
   <!-- Prot-Memb | NORMAL | PB | Delta | TDC -->
   <g style="fill: #262626" transform="translate(88.92375 31.9737) scale(0.14 -0.14)">
    <defs>
     <path id="ArialMT-62" d="M 941 0 
L 419 0 
L 419 4581 
L 981 4581 
L 981 2947 
Q 1338 3394 1891 3394 
Q 2197 3394 2470 3270 
Q 2744 3147 2920 2923 
Q 3097 2700 3197 2384 
Q 3297 2069 3297 1709 
Q 3297 856 2875 390 
Q 2453 -75 1863 -75 
Q 1275 -75 941 416 
L 941 0 
z
M 934 1684 
Q 934 1088 1097 822 
Q 1363 388 1816 388 
Q 2184 388 2453 708 
Q 2722 1028 2722 1663 
Q 2722 2313 2464 2622 
Q 2206 2931 1841 2931 
Q 1472 2931 1203 2611 
Q 934 2291 934 1684 
z
" transform="scale(0.015625)"/>
     <path id="ArialMT-7c" d="M 588 -1347 
L 588 4659 
L 1078 4659 
L 1078 -1347 
L 588 -1347 
z
" transform="scale(0.015625)"/>
    </defs>
    <use xlink:href="#ArialMT-50"/>
    <use xlink:href="#ArialMT-72" x="66.699219"/>
    <use xlink:href="#ArialMT-6f" x="100"/>
    <use xlink:href="#ArialMT-74" x="155.615234"/>
    <use xlink:href="#ArialMT-2d" x="183.398438"/>
    <use xlink:href="#ArialMT-4d" x="216.699219"/>
    <use xlink:href="#ArialMT-65" x="300"/>
    <use xlink:href="#ArialMT-6d" x="355.615234"/>
    <use xlink:href="#ArialMT-62" x="438.916016"/>
    <use xlink:href="#ArialMT-20" x="494.53125"/>
    <use xlink:href="#ArialMT-7c" x="522.314453"/>
    <use xlink:href="#ArialMT-20" x="548.291016"/>
    <use xlink:href="#ArialMT-4e" x="576.074219"/>
    <use xlink:href="#ArialMT-4f" x="648.291016"/>
    <use xlink:href="#ArialMT-52" x="726.074219"/>
    <use xlink:href="#ArialMT-4d" x="798.291016"/>
    <use xlink:href="#ArialMT-41" x="881.591797"/>
    <use xlink:href="#ArialMT-4c" x="948.291016"/>
    <use xlink:href="#ArialMT-20" x="1000.15625"/>
    <use xlink:href="#ArialMT-7c" x="1027.939453"/>
    <use xlink:href="#ArialMT-20" x="1053.916016"/>
    <use xlink:href="#ArialMT-50" x="1081.699219"/>
    <use xlink:href="#ArialMT-42" x="1148.398438"/>
    <use xlink:href="#ArialMT-20" x="1215.097656"/>
    <use xlink:href="#ArialMT-7c" x="1242.880859"/>
    <use xlink:href="#ArialMT-20" x="1268.857422"/>
    <use xlink:href="#ArialMT-44" x="1296.640625"/>
    <use xlink:href="#ArialMT-65" x="1368.857422"/>
    <use xlink:href="#ArialMT-6c" x="1424.472656"/>
    <use xlink:href="#ArialMT-74" x="1446.689453"/>
    <use xlink:href="#ArialMT-61" x="1474.472656"/>
    <use xlink:href="#ArialMT-20" x="1530.087891"/>
    <use xlink:href="#ArialMT-7c" x="1557.871094"/>
    <use xlink:href="#ArialMT-20" x="1583.847656"/>
    <use xlink:href="#ArialMT-54" x="1609.880859"/>
    <use xlink:href="#ArialMT-44" x="1670.964844"/>
    <use xlink:href="#ArialMT-43" x="1743.181641"/>
   </g>
  </g>
 </g>
 <defs>
  <clipPath id="p1b2d722e0f">
   <rect x="54.27" y="49.332096" width="364.77" height="221.380581"/>
  </clipPath>
 </defs>
</svg>
